<?xml version="1.0" encoding="UTF-8"?>
<svg xmlns="http://www.w3.org/2000/svg" width="64" height="64" viewBox="0 0 64 64">
  <defs>
    <linearGradient id="bg" x1="0" y1="0" x2="1" y2="1">
      <stop offset="0%" stop-color="#D1FAE5"></stop>
      <stop offset="100%" stop-color="#A7F3D0"></stop>
    </linearGradient>
    <linearGradient id="bag" x1="0" y1="0" x2="0" y2="1">
      <stop offset="0%" stop-color="#FEF3C7"></stop>
      <stop offset="100%" stop-color="#FDE68A"></stop>
    </linearGradient>
    <linearGradient id="liquid" x1="0" y1="0" x2="0" y2="1">
      <stop offset="0%" stop-color="#34D399"></stop>
      <stop offset="100%" stop-color="#059669"></stop>
    </linearGradient>
  </defs>
  <rect width="64" height="64" rx="18" fill="url(#bg)"></rect>
  <path d="M32 8 L32 14" stroke="#047857" stroke-width="1.6" stroke-linecap="round"></path>
  <circle cx="32" cy="7" r="2" fill="none" stroke="#047857" stroke-width="1.6"></circle>
  <path d="M24 14 H40 a2 2 0 0 1 2 2 V36 a8 8 0 0 1 -8 8 H30 a8 8 0 0 1 -8 -8 V16 a2 2 0 0 1 2 -2 Z" fill="url(#bag)" stroke="#92400E" stroke-width="0.8"></path>
  <path d="M24 24 H40 V36 a8 8 0 0 1 -8 8 H30 a8 8 0 0 1 -8 -8 Z" fill="url(#liquid)" opacity="0.85"></path>
  <path d="M26 17 V30" stroke="#FFFFFF" stroke-width="1.4" stroke-linecap="round" opacity="0.55"></path>
  <path d="M32 44 L32 52" stroke="#0F766E" stroke-width="1.6" stroke-linecap="round"></path>
  <path d="M32 52 c -2.4 2.4 -2.4 5.6 0 7 c 2.4 -1.4 2.4 -4.6 0 -7 Z" fill="#22D3EE"></path>
  <ellipse cx="30.6" cy="55" rx="0.8" ry="1.3" fill="#FFFFFF" opacity="0.7"></ellipse>
  <circle cx="48" cy="20" r="1.6" fill="#FBBF24"></circle>
  <circle cx="14" cy="40" r="1.2" fill="#FBBF24" opacity="0.7"></circle>
</svg>