<?xml version="1.0" encoding="UTF-8"?>
<svg xmlns="http://www.w3.org/2000/svg" width="64" height="64" viewBox="0 0 64 64">
  <defs>
    <linearGradient id="bg" x1="0" y1="0" x2="1" y2="1">
      <stop offset="0%" stop-color="#DBEAFE"></stop>
      <stop offset="100%" stop-color="#BFDBFE"></stop>
    </linearGradient>
    <linearGradient id="paper" x1="0" y1="0" x2="0" y2="1">
      <stop offset="0%" stop-color="#FFFFFF"></stop>
      <stop offset="100%" stop-color="#F1F5F9"></stop>
    </linearGradient>
  </defs>
  <rect width="64" height="64" rx="18" fill="url(#bg)"></rect>
  <g transform="rotate(-6 32 34)">
    <rect x="14" y="14" width="34" height="40" rx="3" fill="url(#paper)" stroke="#94A3B8" stroke-width="0.6"></rect>
    <rect x="26" y="11" width="10" height="6" rx="1.5" fill="#64748B"></rect>
    <text x="19" y="29" font-family="Georgia, serif" font-size="11" font-weight="700" fill="#1E40AF">R</text>
    <text x="25" y="33" font-family="Georgia, serif" font-size="9" font-weight="700" fill="#1E40AF" font-style="italic">x</text>
    <rect x="20" y="34" width="22" height="1.4" rx="0.7" fill="#CBD5E1"></rect>
    <rect x="20" y="38" width="18" height="1.4" rx="0.7" fill="#CBD5E1"></rect>
    <rect x="20" y="42" width="20" height="1.4" rx="0.7" fill="#CBD5E1"></rect>
    <path d="M20 48 q3 -3 6 0 t 6 0 t 6 -1" stroke="#3B82F6" stroke-width="1.4" fill="none" stroke-linecap="round"></path>
  </g>
  <g transform="translate(40 40) rotate(35)">
    <rect x="-9" y="-4" width="18" height="8" rx="4" fill="#F87171" stroke="#B91C1C" stroke-width="0.6"></rect>
    <rect x="-9" y="-4" width="9" height="8" rx="4" fill="#FECACA"></rect>
    <line x1="0" y1="-4" x2="0" y2="4" stroke="#B91C1C" stroke-width="0.6"></line>
  </g>
  <circle cx="50" cy="16" r="1.6" fill="#FBBF24"></circle>
</svg>